HIERARCHY
ROOT pelvis
{
  OFFSET 0 100 0
  CHANNELS 6 Xposition Yposition Zposition Zrotation Xrotation Yrotation
  JOINT pelvis_right_femur
  {
    OFFSET -10.78128 -3.44521 -0.5502486
    CHANNELS 3 Zrotation Xrotation Yrotation
    JOINT right_femur_tibia
    {
      OFFSET -0.8047443 -44.0398 -0.1307829
      CHANNELS 3 Zrotation Xrotation Yrotation
      JOINT right_tibia_foot
      {
        OFFSET 3.006224 -47.83518 -5
        CHANNELS 3 Zrotation Xrotation Yrotation
        End Site
        {
          OFFSET 0 -5 15
        }
      }
    }
  }
  JOINT pelvis_left_femur
  {
    OFFSET 10.78128 -3.44521 -0.5502486
    CHANNELS 3 Zrotation Xrotation Yrotation
    JOINT left_femur_tibia
    {
      OFFSET 0.8047443 -44.0398 -0.1307829
      CHANNELS 3 Zrotation Xrotation Yrotation
      JOINT left_tibia_foot
      {
        OFFSET -4.370144 -48.10324 -4.275266
        CHANNELS 3 Zrotation Xrotation Yrotation
        End Site
        {
          OFFSET 0 -5 15
        }
      }
    }
  }
  JOINT pelvis_spine1
  {
    OFFSET 0 6.468898 -3.129235
    CHANNELS 3 Zrotation Xrotation Yrotation
    JOINT spine1
    {
      OFFSET 0 23.15396 4.99043
      CHANNELS 3 Zrotation Xrotation Yrotation
      JOINT spine2
      {
        OFFSET 0 20.79997 -5.064912
        CHANNELS 3 Zrotation Xrotation Yrotation
        JOINT neck
        {
          OFFSET 0 14.38658 9.616178
          CHANNELS 3 Zrotation Xrotation Yrotation
          End Site
          {
            OFFSET 0 20 0
          }
        }
      }
      JOINT right_manubrium
      {
        OFFSET -5.722621 16.35077 3.967754
        CHANNELS 3 Zrotation Xrotation Yrotation
        JOINT right_clavicle
        {
          OFFSET -13.16364 1.694482 -4.693211
          CHANNELS 3 Zrotation Xrotation Yrotation
          JOINT right_humerus
          {
            OFFSET -28.5034 -0.3100689 -2.792744
            CHANNELS 3 Zrotation Xrotation Yrotation
            JOINT right_radius
            {
              OFFSET -25.15693 0.02248979 -1.271978
              CHANNELS 3 Zrotation Xrotation Yrotation
              End Site
              {
                OFFSET -15 0 0
              }
            }
          }
        }
      }
      JOINT left_manubrium
      {
        OFFSET 5.722621 16.35077 3.967754
        CHANNELS 3 Zrotation Xrotation Yrotation
        JOINT left_clavicle
        {
          OFFSET 13.16364 1.694482 -4.693211
          CHANNELS 3 Zrotation Xrotation Yrotation
          JOINT left_humerus
          {
            OFFSET 29.39168 -1.063119 -2.237045
            CHANNELS 3 Zrotation Xrotation Yrotation
            JOINT left_radius
            {
              OFFSET 24.59957 -0.9528479 0.9047498
              CHANNELS 3 Zrotation Xrotation Yrotation
              End Site
              {
                OFFSET 15 -0 -0
              }
            }
          }
        }
      }
    }
  }
}
MOTION
Frames: 15
Frame Time: 0.0416666666667
-1535.968 109.9977 1994.887 -4.308522 1.75233 -93.83425 5.669218 16.99404 -0.9882015 -0 7.19987 -0 -14.71645 -14.65988 -0.2919371 4.88885 -24.4379 -2.884108 -0 6.337923 -0 4.26406 -0.552571 17.35867 0.5291042 -3.183808 9.08526 0.548677 16.23444 -6.594802 -0.7985305 19.50882 4.33184 5.440163 -15.59282 0.714414 1.724134 -27.58983 12.88275 85.84276 20.48019 -13.74794 -0 0 27.14742 -20.45393 12.50322 7.364298 4.651209 -27.76179 -9.571285 -96.95509 6.970736 35.27162 0 0 -2.764629 10.82906 11.7373 -0.6146471
-1541.89 108.9313 1995.436 -4.296896 1.419824 -94.52254 4.154881 19.41159 -1.130536 -0 11.09039 -0 -15.23325 -12.64528 0.6606857 3.349157 -23.4116 -5.062835 -0 3.441164 -0 3.543837 -0.859871 17.93082 0.4851465 -3.107634 9.126995 0.4717515 16.09239 -6.417361 -0.7843201 19.56036 4.356296 5.415731 -15.59214 0.7886056 1.703904 -27.71472 12.81079 85.60941 20.80105 -13.11547 -0 0 27.47277 -20.58937 12.4996 7.616949 4.577139 -27.44527 -9.413934 -97.22741 6.987935 35.7064 0 0 -1.923129 10.6203 11.71304 -0.3553265
-1548.257 108.259 1996.025 -4.988321 0.6818208 -95.0215 2.334962 21.06565 -1.420751 -0 17.17519 -0 -15.95169 -8.169321 1.882793 0.9104903 -21.09702 -7.786223 -0 4.339687 -0 2.613832 -1.936489 18.63251 0.4431621 -3.068599 9.005606 0.4071813 16.01481 -6.339451 -0.7543431 19.65108 4.449067 5.45037 -15.6504 0.9031646 1.701425 -27.55138 12.78159 85.62369 20.91147 -13.06185 -0 0 27.19235 -20.81475 12.44677 7.785511 4.654075 -27.33554 -9.392866 -97.09323 7.077018 35.34657 0 0 -2.03909 10.7483 11.81812 -0.5531386
-1554.892 108.1747 1996.611 -6.289357 -0.0761521 -95.25012 0.7174081 21.13658 -1.696923 -0 25.23267 -0 -17.02909 -2.055785 3.17716 -1.644043 -17.50974 -10.4276 -0 7.547209 -0 1.846516 -3.455328 19.55028 0.4260491 -3.09963 8.742263 0.3874255 16.05028 -6.402475 -0.7083205 19.75505 4.565236 5.516577 -15.73848 1.025532 1.723852 -27.13109 12.82219 85.90093 20.67984 -13.66678 -0 0 26.35488 -21.06949 12.41746 7.826529 4.861638 -27.48638 -9.529843 -96.58634 7.226724 34.26122 0 0 -3.138323 11.18151 12.08074 -1.156112
-1561.506 108.7205 1997.15 -7.906853 -0.5247612 -95.20328 -0.2907708 19.08874 -1.903563 -0 34.16283 -0 -18.41906 4.304462 4.352004 -3.644986 -12.956 -12.49707 -0 11.24659 -0 1.508977 -5.045908 20.59755 0.4454458 -3.208583 8.397378 0.4291547 16.21109 -6.616458 -0.657753 19.83989 4.668636 5.594509 -15.83012 1.117695 1.766329 -26.54269 12.93243 86.39904 20.10299 -14.85868 -0 0 25.12813 -21.276 12.4376 7.703097 5.154469 -27.90651 -9.807478 -95.805 7.389236 32.66142 0 0 -5.058946 11.83777 12.4441 -2.039162
-1567.808 109.7529 1997.619 -9.446658 -0.5766037 -94.94043 -0.5978704 14.99732 -2.076147 -0 42.15048 -0 -19.76584 9.487098 5.194368 -4.829459 -7.981213 -13.81786 -0 13.97697 -0 1.593776 -6.550125 21.49787 0.5000412 -3.381532 8.037659 0.526757 16.47601 -6.957173 -0.6171045 19.8827 4.745577 5.677376 -15.91178 1.156666 1.81775 -25.88774 13.0918 87.04006 19.27488 -16.46073 -0 0 23.71545 -21.38661 12.49206 7.410916 5.486158 -28.55597 -10.18309 -94.86807 7.512319 30.79731 0 0 -7.536063 12.62359 12.81792 -3.067257
-1573.608 110.9862 1998.014 -10.54067 -0.3809978 -94.54936 -0.4230542 9.484258 -2.292288 -0 47.29687 -0 -20.54515 12.53824 5.476329 -5.321189 -3.170824 -14.46862 -0 15.02622 -0 1.874355 -8.073054 21.91223 0.5791418 -3.592308 7.708531 0.6602736 16.80527 -7.380077 -0.5955839 19.87785 4.801059 5.767319 -15.98173 1.140628 1.868491 -25.24133 13.27346 87.74326 18.32466 -18.2712 -0 0 22.27984 -21.3957 12.54689 6.979736 5.823665 -29.36162 -10.60906 -93.87481 7.564748 28.86842 0 0 -10.30144 13.4607 13.1281 -4.13748
-1578.87 112.0922 1998.341 -10.95114 -0.178296 -94.11067 -0.1086978 3.362584 -2.641233 -0 48.36101 -0 -20.37947 13.21966 5.10219 -5.427259 1.039486 -14.62651 -0 14.44748 -0 2.114157 -9.824698 21.64172 0.6676517 -3.81142 7.427054 0.8066879 17.15508 -7.837674 -0.5952755 19.83436 4.848746 5.869565 -16.04511 1.082612 1.913142 -24.63966 13.45344 88.44798 17.37338 -20.12174 -0 0 20.91412 -21.32503 12.56642 6.456695 6.149219 -30.24116 -11.04586 -92.88717 7.539902 26.99 0 0 -13.14441 14.29516 13.33317 -5.188766
-1583.692 112.8023 1998.603 -10.61971 -0.1437216 -93.6817 0.08232348 -2.719258 -3.177571 -0 45.1872 -0 -19.26889 11.9557 4.235036 -5.440283 4.45212 -14.45439 -0 12.81143 -0 2.249846 -11.90494 20.753 0.7497735 -4.011306 7.189199 0.9461751 17.48571 -8.289311 -0.6134256 19.76882 4.903693 5.989031 -16.10984 1.001808 1.949358 -24.08859 13.61328 89.1186 16.51928 -21.89391 -0 0 19.65149 -21.20625 12.5207 5.890944 6.455711 -31.11974 -11.46523 -91.93306 7.446007 25.20598 0 0 -15.9232 15.09445 13.41737 -6.1925
-1588.243 112.9674 1998.805 -9.652146 -0.3159276 -93.29786 0.06933711 -8.421975 -3.874261 -0 38.6466 -0 -17.53617 9.595363 3.212404 -5.53447 7.088357 -14.06077 -0 10.88207 -0 2.433617 -14.19815 19.54793 0.8109418 -4.168115 6.980827 1.063403 17.76389 -8.702944 -0.6452605 19.6993 4.978751 6.128935 -16.184 0.9176202 1.976118 -23.57906 13.73921 89.73795 15.84046 -23.50806 -0 0 18.49255 -21.07006 12.38752 5.326561 6.74077 -31.93472 -11.84772 -91.01972 7.295699 23.52104 0 0 -18.54561 15.83901 13.37844 -7.137345
-1592.711 112.5678 1998.952 -8.25921 -0.6192545 -92.97764 -0.05790785 -13.6388 -4.623657 -0 30.2259 -0 -15.60551 7.103646 2.342057 -5.753149 9.104807 -13.50093 -0 9.364484 -0 2.925825 -16.41537 18.41118 0.8388148 -4.261778 6.786955 1.146948 17.96255 -9.053174 -0.6857919 19.64147 5.082576 6.289945 -16.27379 0.8464539 1.992785 -23.10082 13.82081 90.29762 15.40171 -24.90456 -0 0 17.43187 -20.94044 12.15275 4.801012 7.001741 -32.63317 -12.17866 -90.14826 7.10048 21.93278 0 0 -20.94092 16.51277 13.21906 -8.014905
-1597.276 111.6918 1999.047 -6.689112 -0.9306927 -92.72371 -0.1190969 -18.31634 -5.285157 -0 21.52916 -0 -13.83591 5.264454 1.772665 -6.047022 10.69721 -12.79342 -0 8.786159 -0 3.899436 -18.20675 17.61752 0.8243148 -4.27632 6.598558 1.188898 18.06082 -9.31916 -0.7306517 19.60629 5.217858 6.469169 -16.38173 0.7998515 1.998919 -22.6525 13.85036 90.78926 15.25786 -26.02868 -0 0 16.478 -20.83102 11.81163 4.345238 7.232144 -33.16875 -12.44498 -89.32572 6.870145 20.45776 0 0 -23.03526 17.09552 12.94375 -8.808515
-1602.092 110.5016 1999.083 -5.178841 -1.138582 -92.52358 0.07173315 -22.30503 -5.734916 -0 13.90437 -0 -12.46385 4.477965 1.487613 -6.322425 12.02303 -11.9428 -0 9.499116 -0 5.269555 -19.26508 17.19168 0.7633143 -4.201756 6.417421 1.185269 18.04572 -9.484187 -0.7764313 19.59854 5.379684 6.659075 -16.50522 0.7831205 1.994376 -22.24815 13.8235 91.19855 15.44952 -26.82404 -0 0 15.66555 -20.74322 11.37142 3.983258 7.420091 -33.5019 -12.63359 -88.57393 6.615657 19.14917 0 0 -24.73634 17.55925 12.56054 -9.48647
-1607.275 109.2038 1999.041 -3.932064 -1.168899 -92.35737 0.6516493 -25.31923 -5.888887 -0 8.265888 -0 -11.60271 4.707152 1.365431 -6.4777 13.14821 -10.96296 -0 11.74478 -0 6.672743 -19.39088 16.90774 0.6588538 -4.038016 6.258625 1.137048 17.91593 -9.537454 -0.8208582 19.61591 5.554913 6.847023 -16.63608 0.7944922 1.979363 -21.91943 13.74068 91.50272 15.98966 -27.23654 -0 0 15.0568 -20.66739 10.85492 3.730947 7.54945 -33.60579 -12.73186 -87.93406 6.353642 18.10264 0 0 -25.9323 17.87028 12.08581 -10.00175
-1612.881 108.0241 1998.901 -3.113083 -0.9859856 -92.21575 1.678814 -27.01535 -5.709696 -0 5.060488 -0 -11.26402 5.567281 1.254279 -6.4256 14.01079 -9.893521 -0 15.70558 -0 7.641414 -18.51167 16.45019 0.5228567 -3.799724 6.148844 1.051099 17.68616 -9.477495 -0.8628212 19.64967 5.723676 7.016188 -16.76148 0.8255217 1.954416 -21.71092 13.6092 91.67251 16.84411 -27.22853 -0 0 14.72948 -20.58879 10.30318 3.594849 7.604228 -33.47675 -12.73034 -87.46459 6.109759 17.44353 0 0 -26.5083 17.99791 11.55067 -10.30034
